<svg width="128" height="128" viewBox="0 0 128 128" fill="none" xmlns="http://www.w3.org/2000/svg">
<rect width="128" height="128" fill="white"/>
<rect width="64" height="128" fill="black"/>
<path d="M57.9501 19.544V53H53.5821V37.832H36.5421V53H32.1741V19.544H36.5421V34.232H53.5821V19.544H57.9501ZM22.2781 97.448H33.9901V101H17.9101V67.544H22.2781V97.448ZM50.1968 97.448H61.9088V101H45.8288V67.544H50.1968V97.448Z" fill="white"/>
<path d="M76.9765 23.096V34.28H89.1685V37.88H76.9765V49.4H90.6085V53H72.6085V19.496H90.6085V23.096H76.9765ZM88.9156 101.336C85.8116 101.336 82.9796 100.616 80.4196 99.176C77.8596 97.704 75.8276 95.672 74.3236 93.08C72.8516 90.456 72.1156 87.512 72.1156 84.248C72.1156 80.984 72.8516 78.056 74.3236 75.464C75.8276 72.84 77.8596 70.808 80.4196 69.368C82.9796 67.896 85.8116 67.16 88.9156 67.16C92.0516 67.16 94.8996 67.896 97.4596 69.368C100.02 70.808 102.036 72.824 103.508 75.416C104.98 78.008 105.716 80.952 105.716 84.248C105.716 87.544 104.98 90.488 103.508 93.08C102.036 95.672 100.02 97.704 97.4596 99.176C94.8996 100.616 92.0516 101.336 88.9156 101.336ZM88.9156 97.544C91.2516 97.544 93.3476 97 95.2036 95.912C97.0916 94.824 98.5636 93.272 99.6196 91.256C100.708 89.24 101.252 86.904 101.252 84.248C101.252 81.56 100.708 79.224 99.6196 77.24C98.5636 75.224 97.1076 73.672 95.2516 72.584C93.3956 71.496 91.2836 70.952 88.9156 70.952C86.5476 70.952 84.4356 71.496 82.5796 72.584C80.7236 73.672 79.2516 75.224 78.1636 77.24C77.1076 79.224 76.5796 81.56 76.5796 84.248C76.5796 86.904 77.1076 89.24 78.1636 91.256C79.2516 93.272 80.7236 94.824 82.5796 95.912C84.4676 97 86.5796 97.544 88.9156 97.544Z" fill="black"/>
</svg>
